<svg xmlns="http://www.w3.org/2000/svg" xmlns:xlink="http://www.w3.org/1999/xlink" preserveAspectRatio="xMidYMid" width="23" height="23" viewBox="0 0 23 23">
  <defs>
    <style>

      .cls-2 {
        fill: #bdc3c7;
        filter: url(#color-overlay-1);
      }
    </style>

    <filter id="color-overlay-1" filterUnits="userSpaceOnUse">
      <feFlood flood-color="#ffffff" flood-opacity="1"/>
      <feComposite operator="in" in2="SourceGraphic"/>
      <feBlend mode="normal" in2="SourceGraphic" result="colorOverlay"/>
    </filter>
  </defs>
  <path d="M19.587,18.187 C19.587,18.187 15.967,18.187 15.967,18.187 C15.967,18.187 12.177,21.977 12.177,21.977 C12.177,21.977 12.177,21.977 12.177,21.977 C11.924,22.230 11.574,22.387 11.187,22.387 C10.801,22.387 10.451,22.230 10.197,21.977 C10.197,21.977 10.197,21.977 10.197,21.977 C10.197,21.977 6.407,18.187 6.407,18.187 C6.407,18.187 2.787,18.187 2.787,18.187 C1.241,18.187 -0.013,16.933 -0.013,15.387 C-0.013,15.387 -0.013,2.787 -0.013,2.787 C-0.013,1.241 1.241,-0.013 2.787,-0.013 C2.787,-0.013 19.587,-0.013 19.587,-0.013 C21.134,-0.013 22.387,1.241 22.387,2.787 C22.387,2.787 22.387,15.387 22.387,15.387 C22.387,16.933 21.134,18.187 19.587,18.187 ZM19.587,4.187 C19.587,3.413 18.960,2.787 18.187,2.787 C18.187,2.787 4.187,2.787 4.187,2.787 C3.414,2.787 2.787,3.413 2.787,4.187 C2.787,4.187 2.787,13.987 2.787,13.987 C2.787,14.760 3.414,15.387 4.187,15.387 C4.187,15.387 5.587,15.387 5.587,15.387 C5.587,15.387 6.987,15.387 6.987,15.387 C7.374,15.387 7.724,15.544 7.977,15.797 C7.977,15.797 7.977,15.797 7.977,15.797 C7.977,15.797 11.187,19.007 11.187,19.007 C11.187,19.007 14.397,15.797 14.397,15.797 C14.397,15.797 14.397,15.797 14.397,15.797 C14.651,15.544 15.001,15.387 15.387,15.387 C15.387,15.387 16.787,15.387 16.787,15.387 C16.787,15.387 18.187,15.387 18.187,15.387 C18.960,15.387 19.587,14.760 19.587,13.987 C19.587,13.987 19.587,4.187 19.587,4.187 ZM15.387,12.587 C15.387,12.587 6.987,12.587 6.987,12.587 C6.214,12.587 5.587,11.960 5.587,11.187 C5.587,10.414 6.214,9.787 6.987,9.787 C6.987,9.787 15.387,9.787 15.387,9.787 C16.160,9.787 16.787,10.414 16.787,11.187 C16.787,11.960 16.160,12.587 15.387,12.587 ZM15.387,8.387 C15.387,8.387 6.987,8.387 6.987,8.387 C6.214,8.387 5.587,7.760 5.587,6.987 C5.587,6.214 6.214,5.587 6.987,5.587 C6.987,5.587 15.387,5.587 15.387,5.587 C16.160,5.587 16.787,6.214 16.787,6.987 C16.787,7.760 16.160,8.387 15.387,8.387 Z" id="path-1" class="cls-2" fill-rule="evenodd"/>
</svg>
